<svg width="128" height="128" viewBox="0 0 128 128" fill="none" xmlns="http://www.w3.org/2000/svg">
<path d="M47.3681 39.621L56.0831 54.716L47.3681 69.811H29.9381L21.2231 54.716H38.6531L47.3681 39.621Z" fill="#FFDA00"/>
<path d="M73.5132 54.716L82.2282 69.811L73.5132 84.906H56.0832L47.3682 69.811L56.0832 54.716H73.5132Z" fill="#FFB000"/>
<path d="M47.3681 69.811L56.0831 84.906L47.3681 100H29.9381L21.2231 84.906L29.9381 69.811H47.3681Z" fill="#FF7300"/>
<path opacity="0.4" d="M38.6528 54.716L47.3678 69.811L38.6528 84.906H21.2228L12.5078 69.811L21.2228 54.716H38.6528Z" fill="#FFC200"/>
<path opacity="0.4" d="M64.7978 39.621L73.5128 54.716L64.7978 69.811H47.3678L38.6528 54.716L47.3678 39.621H64.7978Z" fill="#FFEE4D"/>
<path opacity="0.4" d="M64.7978 69.811L73.5128 84.906L64.7978 100H47.3678L38.6528 84.906L47.3678 69.811H64.7978Z" fill="#FF9700"/>
<path d="M45.1889 35.847L36.4739 50.942H19.0439L27.7589 35.847H45.1889Z" fill="#FFDA00"/>
<path fill-rule="evenodd" clip-rule="evenodd" d="M74.4937 33.643L99.2786 76.57L102.69 74.512L76.8536 29.86L74.4937 33.643Z" fill="#FFDA00"/>
<path fill-rule="evenodd" clip-rule="evenodd" d="M111.717 70.04L85.1585 24.214H80.5615L106.901 69.736L111.717 70.04Z" fill="#FFDA00"/>
<path d="M42.7169 43.3484C42.7034 43.6776 42.5631 43.9888 42.3254 44.217C42.0877 44.4451 41.771 44.5725 41.4416 44.5725C41.1121 44.5725 40.7954 44.4451 40.5577 44.217C40.32 43.9888 40.1798 43.6776 40.1662 43.3484V41.4909H24.495V43.8732C24.4815 44.2024 24.3412 44.5135 24.1035 44.7416C23.8658 44.9698 23.5491 45.0971 23.2197 45.0971C22.8902 45.0971 22.5736 44.9698 22.3359 44.7416C22.0982 44.5135 21.9579 44.2024 21.9443 43.8732V40.2665C21.9513 39.9351 22.0895 39.6201 22.3287 39.3906C22.5678 39.1611 22.8883 39.0359 23.2197 39.0426H41.4416C41.773 39.0359 42.0934 39.1611 42.3326 39.3906C42.5717 39.6201 42.71 39.9351 42.7169 40.2665V43.3484Z" fill="#231F20"/>
<path d="M33.7028 40.2665C33.7033 40.4271 33.672 40.5862 33.6109 40.7347C33.5498 40.8832 33.4599 41.0181 33.3466 41.1318C33.2332 41.2455 33.0985 41.3358 32.9502 41.3973C32.8018 41.4589 32.6428 41.4906 32.4823 41.4906C32.3217 41.4906 32.1627 41.4589 32.0144 41.3973C31.8661 41.3358 31.7314 41.2455 31.618 41.1318C31.5046 41.0181 31.4148 40.8832 31.3536 40.7347C31.2925 40.5862 31.2613 40.4271 31.2617 40.2665V27.0203C31.2617 26.6966 31.3903 26.3861 31.6192 26.1571C31.848 25.9281 32.1585 25.7995 32.4823 25.7994H79.2817C79.6055 25.7994 79.916 25.928 80.145 26.1569C80.3739 26.3859 80.5025 26.6964 80.5025 27.0202C80.5025 27.344 80.3739 27.6545 80.145 27.8834C79.916 28.1124 79.6055 28.241 79.2817 28.241H33.7028V40.2665Z" fill="#231F20"/>
<path fill-rule="evenodd" clip-rule="evenodd" d="M32.4826 22.4492C33.38 22.4492 34.2571 22.7153 35.0033 23.2138C35.7494 23.7123 36.3309 24.4208 36.6744 25.2498C37.0178 26.0789 37.1077 26.9911 36.9327 27.8712C36.7576 28.7513 36.3256 29.5597 35.6911 30.1943C35.0566 30.8288 34.2482 31.2609 33.3681 31.436C32.488 31.6111 31.5758 31.5213 30.7468 31.178C29.9177 30.8346 29.2091 30.2531 28.7105 29.507C28.212 28.761 27.9458 27.8838 27.9458 26.9865C27.9458 25.7832 28.4238 24.6292 29.2746 23.7783C30.1254 22.9274 31.2794 22.4494 32.4826 22.4492Z" fill="#231F20"/>
<path fill-rule="evenodd" clip-rule="evenodd" d="M32.4824 24.8659C32.9019 24.8659 33.3119 24.9903 33.6606 25.2233C34.0093 25.4563 34.2811 25.7875 34.4416 26.175C34.6021 26.5625 34.6441 26.9889 34.5623 27.4002C34.4804 27.8116 34.2785 28.1895 33.9819 28.486C33.6853 28.7826 33.3074 28.9845 32.8961 29.0664C32.4847 29.1482 32.0584 29.1062 31.6709 28.9457C31.2834 28.7852 30.9522 28.5134 30.7192 28.1646C30.4862 27.8159 30.3618 27.4059 30.3618 26.9865C30.3618 26.4241 30.5853 25.8847 30.983 25.487C31.3806 25.0893 31.92 24.8659 32.4824 24.8659" fill="white"/>
<path fill-rule="evenodd" clip-rule="evenodd" d="M83.439 96.9726L82.1436 95.1167L97.1883 68.2381C97.8152 67.1182 98.6565 66.1327 99.6642 65.3379C100.672 64.543 101.826 63.9545 103.062 63.6058C104.297 63.2572 105.589 63.1552 106.863 63.3058C108.138 63.4563 109.37 63.8565 110.49 64.4833C111.61 65.1102 112.596 65.9515 113.39 66.9592C114.185 67.967 114.774 69.1214 115.122 70.3566C115.471 71.5918 115.573 72.8835 115.422 74.1581C115.272 75.4327 114.872 76.6652 114.245 77.7851L103.505 96.9726H83.439Z" fill="#FF7300"/>
<path d="M104.544 95.1167H82.1436V100H104.544V95.1167Z" fill="#231F20"/>
<path fill-rule="evenodd" clip-rule="evenodd" d="M105.538 78.7673C106.601 78.7675 107.639 78.4526 108.523 77.8624C109.406 77.2722 110.095 76.4332 110.502 75.4516C110.909 74.4699 111.015 73.3897 110.808 72.3475C110.601 71.3054 110.089 70.3481 109.338 69.5967C108.586 68.8454 107.629 68.3337 106.587 68.1265C105.545 67.9192 104.464 68.0257 103.483 68.4324C102.501 68.8391 101.662 69.5278 101.072 70.4114C100.482 71.295 100.167 72.3338 100.167 73.3963C100.169 74.8203 100.735 76.1855 101.742 77.1924C102.749 78.1993 104.114 78.7657 105.538 78.7673Z" fill="#231F20"/>
<path fill-rule="evenodd" clip-rule="evenodd" d="M70.3614 21.6382H58.6468C57.2208 21.6423 55.8543 22.2107 54.846 23.219C53.8376 24.2274 53.2693 25.5939 53.2651 27.0199V27.0203C53.2693 28.4464 53.8376 29.8128 54.8459 30.8212C55.8543 31.8296 57.2208 32.3979 58.6468 32.4021H70.3614C71.7875 32.3979 73.154 31.8296 74.1624 30.8212C75.1707 29.8128 75.7391 28.4464 75.7433 27.0203V27.0199C75.7391 25.5938 75.1707 24.2274 74.1623 23.219C73.1539 22.2107 71.7875 21.6423 70.3614 21.6382Z" fill="#231F20"/>
<path fill-rule="evenodd" clip-rule="evenodd" d="M79.8341 20.0004H64.5546C62.6946 20.0058 60.9123 20.7471 59.5971 22.0624C58.2819 23.3776 57.5406 25.1599 57.5352 27.0199V27.0207C57.5406 28.8807 58.2819 30.663 59.5971 31.9783C60.9123 33.2935 62.6946 34.0348 64.5546 34.0402H79.8341C81.6942 34.0348 83.4764 33.2935 84.7917 31.9782C86.1069 30.663 86.8482 28.8807 86.8536 27.0207V27.0199C86.8482 25.1599 86.1069 23.3776 84.7917 22.0624C83.4764 20.7472 81.6942 20.0059 79.8341 20.0004Z" fill="#FF7300"/>
<path fill-rule="evenodd" clip-rule="evenodd" d="M79.2824 30.8408C80.0403 30.8409 80.7813 30.6162 81.4116 30.1952C82.0419 29.7741 82.5331 29.1756 82.8232 28.4754C83.1133 27.7751 83.1893 27.0046 83.0414 26.2612C82.8936 25.5177 82.5286 24.8349 81.9927 24.2989C81.4567 23.7629 80.7739 23.3979 80.0305 23.2501C79.2871 23.1022 78.5165 23.1781 77.8162 23.4682C77.116 23.7583 76.5175 24.2495 76.0964 24.8797C75.6753 25.51 75.4506 26.251 75.4507 27.0089C75.4518 28.0248 75.8558 28.9988 76.5742 29.7172C77.2925 30.4356 78.2665 30.8396 79.2824 30.8408Z" fill="#231F20"/>
<path d="M30.3618 43.395L24.2288 48.198L21.6348 46.449L24.4948 41.491L30.3618 43.395Z" fill="#FFDA00"/>
</svg>
