<svg width="128" height="128" viewBox="0 0 128 128" fill="none" xmlns="http://www.w3.org/2000/svg">
<path d="M87.0938 24H40.9058L17.812 64L40.9058 104H87.0938L110.188 64L87.0938 24ZM35.5 80.4551V47.5454L64 31.0913L92.5 47.5454V80.4551L64 96.9092L35.5 80.4551ZM94 49.6409L96.458 51.6426L94 66.8911V49.6409ZM66.5645 30.8394L69.5274 29.7114L81.5039 39.4648L66.5645 30.8394ZM36.5645 45.1987L37.0689 42.0689L51.5051 36.5728L36.5645 45.1987ZM34 78.3594L31.5415 76.3574L34 61.1062V78.3594ZM61.4356 97.1611L58.4727 98.2891L46.4937 88.5337L61.4356 97.1611ZM91.4356 82.8013L90.9307 85.9316L76.4937 91.4282L91.4356 82.8013ZM94 76.3203L97.7803 52.8696L100.441 55.7476L94 76.5039V76.3203ZM89.6665 44.1772L71.25 29.1802L75.0733 28.3144L89.8286 44.271L89.6665 44.1772ZM59.668 31.8599L37.4705 40.311L38.6323 36.5668L59.8298 31.7666L59.668 31.8599ZM34 51.6816L30.2197 75.1299L27.5586 72.252L34 51.4946V51.6816ZM38.3272 83.8188L56.749 98.8198L52.9263 99.6855L38.1709 83.7285L38.3272 83.8188ZM68.3345 96.1387L90.5288 87.6899L89.3672 91.4326L68.1719 96.2329L68.3345 96.1387ZM101.849 56.2744L104.442 59.8662L92.4126 86.6802L101.849 56.2744ZM76.2334 27.3594L80.6416 26.9087L97.8428 50.7278L76.2334 27.3594ZM38.3853 35.0852L40.1987 31.043L69.4277 28.0552L38.3853 35.0852ZM26.1514 71.7256L23.5571 68.1338L35.5852 41.3257L26.1514 71.7256ZM51.7659 100.641L47.3589 101.091L30.1555 77.27L51.7659 100.641ZM89.6157 92.914L87.8017 96.957L58.5732 99.9443L89.6157 92.914ZM106.079 59.8826L108.456 64L89.5039 96.8267L106.079 59.8826ZM105.182 58.3296L81.4746 25.5H86.2285L105.182 58.3296ZM41.772 25.5H79.6738L39.395 29.6172L41.772 25.5ZM38.4964 31.1736L21.9212 68.1167L19.5444 64L38.4964 31.1736ZM22.8218 69.6768L46.5264 102.5H41.772L22.8218 69.6768ZM86.2285 102.5H48.322L88.6055 98.3828L86.2285 102.5Z" fill="#FFD200"/>
<path d="M64 64L44 75.547L64 87.094L84 75.547L64 64Z" fill="#FF7300"/>
<path d="M64 40.906V64L84 75.547V52.453L64 40.906Z" fill="#FFB000"/>
<path d="M44 52.453V75.547L64 64V40.906L44 52.453Z" fill="#FFDA00"/>
<path opacity="0.4" d="M44 52.453V75.547L64 87.094V64L44 52.453Z" fill="#FFC200"/>
<path opacity="0.4" d="M64 40.906L44 52.453L64 64L84 52.453L64 40.906Z" fill="#FFEE4D"/>
<path opacity="0.4" d="M64 64V87.094L84 75.547V52.453L64 64Z" fill="#FF9700"/>
</svg>
