<svg width="128" height="128" viewBox="0 0 128 128" fill="none" xmlns="http://www.w3.org/2000/svg">
<path d="M64.6325 30.7301L69.0915 29.5437L58.3505 69.6296L55.0821 66.3727L64.6325 30.7301Z" fill="#FF9900"/>
<path d="M55.7145 33.1027L51.2555 34.2891L45.2768 56.602L48.5452 59.8589L55.7145 33.1027Z" fill="#FF9900"/>
<path d="M42.3375 36.6618L37.8786 37.8482L35.4715 46.8313L38.74 50.0882L42.3375 36.6618Z" fill="#FF9900"/>
<path d="M33.0904 55.7178L31.8998 60.161L54.7529 83.056L55.9435 78.6127L33.0904 55.7178Z" fill="#FF9900"/>
<path d="M28.3022 73.5874L29.4928 69.1442L52.3717 91.9425L51.1812 96.3858L28.3022 73.5874Z" fill="#FF9900"/>
<path d="M85.6625 91.3382L90.1215 90.1518L92.5285 81.1687L89.2601 77.9118L85.6625 91.3382Z" fill="#FF9900"/>
<path d="M76.7445 93.7109L72.2856 94.8972L79.4548 68.1411L82.7233 71.398L76.7445 93.7109Z" fill="#FF9900"/>
<path d="M58.9086 98.4563L63.3676 97.2699L72.918 61.6273L69.6496 58.3704L58.9086 98.4563Z" fill="#FF9900"/>
<path d="M96.1002 67.839L94.9097 72.2822L72.0566 49.3873L73.2472 44.944L96.1002 67.839Z" fill="#FF9900"/>
<path d="M98.5072 58.8558L99.6978 54.4126L76.8189 31.6143L75.6283 36.0575L98.5072 58.8558Z" fill="#FF9900"/>
</svg>
