<svg width="128" height="128" viewBox="0 0 128 128" fill="none" xmlns="http://www.w3.org/2000/svg">
<path d="M91.9704 52.342L72.3599 32.8006L45.606 39.9187L42.3375 36.6618L73.5763 28.2607L96.4294 51.1557L91.9704 52.342Z" fill="#FF9900"/>
<path d="M32.7612 72.401L39.9305 45.6449L36.688 42.2914L28.3022 73.5874L51.1812 96.3857L52.3717 91.9425L32.7612 72.401Z" fill="#FF9900"/>
<path d="M46.1641 68.7454L49.7358 55.4156L46.4674 52.1587L41.7051 69.9317L54.7529 83.056L55.9435 78.6127L46.1641 68.7454Z" fill="#FF9900"/>
<path d="M86.8531 86.8949L94.0224 60.1388L98.5072 58.8558L90.1215 90.1518L58.9086 98.4563L60.0992 94.013L86.8531 86.8949Z" fill="#FF9900"/>
<path d="M77.0737 77.0276L63.6709 80.6832L62.4803 85.1265L80.3421 80.2845L85.1044 62.5115L80.6454 63.6978L77.0737 77.0276Z" fill="#FF9900"/>
<path d="M68.7882 46.1304L78.5675 55.9977L83.0524 54.7148L69.9787 41.6871L52.1428 46.4325L55.3853 49.786L68.7882 46.1304Z" fill="#FF9900"/>
<path fill-rule="evenodd" clip-rule="evenodd" d="M57.4632 57.4862L66.3812 55.1135L72.918 61.6273L70.5369 70.5138L61.6189 72.8865L55.082 66.3727L57.4632 57.4862ZM68.459 62.8136L65.1906 59.5567L60.7316 60.7431L59.541 65.1863L62.8095 68.4432L67.2684 67.2569L68.459 62.8136Z" fill="#FF9900"/>
</svg>
