<svg width="218" height="78" viewBox="0 0 218 78" fill="none" xmlns="http://www.w3.org/2000/svg">
<path d="M51.8297 58.6H22.474C23.0501 57.2505 24.0204 56.0381 25.376 55.0341C27.3425 53.642 30.2382 51.9027 34.1633 49.8149L38.7159 47.3699L38.7288 47.3625C42.6593 45.0982 45.9432 42.5336 48.2422 39.3062C50.5547 36.0598 51.8297 32.2001 51.8297 27.428C51.8297 21.6472 49.8315 16.6036 46.0247 13.0089C42.2216 9.41773 36.7071 7.35999 29.8297 7.35999C16.6626 7.35999 7.40967 16.4769 7.40967 27.68C7.40967 32.6965 8.99987 37.2855 12.2505 41.3267L12.8236 42.0392L22.1027 35.8531L21.3356 34.994C19.372 32.7947 18.2297 30.0002 18.2297 27.512C18.2297 22.0675 22.7693 17.34 29.4097 17.34C33.0615 17.34 35.9524 18.4879 37.9219 20.3438C39.888 22.1965 41.0097 24.8227 41.0097 27.932C41.0097 32.4812 38.8908 35.3071 35.7382 37.4351L35.733 37.4387C34.1999 38.4876 31.9044 39.7206 28.8785 41.2336L28.8381 41.2537C26.8601 42.2427 25.3281 43.0087 24.2923 43.6124C19.5856 46.2661 15.7785 49.3712 12.9084 53.1112L12.9039 53.117L12.8994 53.123C10.0486 56.9537 8.66967 61.8867 8.66967 68V69H51.8297V58.6Z" fill="white"/>
<path fill-rule="evenodd" clip-rule="evenodd" d="M56.8745 38.6C56.8745 47.954 59.2229 55.7535 63.5467 61.2376C67.8901 66.7466 74.1685 69.84 81.8145 69.84C89.4605 69.84 95.7389 66.7466 100.082 61.2376C104.406 55.7535 106.755 47.954 106.755 38.6C106.755 29.246 104.406 21.4465 100.082 15.9624C95.7389 10.4534 89.4605 7.35999 81.8145 7.35999C74.1685 7.35999 67.8901 10.4534 63.5467 15.9624C59.2229 21.4465 56.8745 29.246 56.8745 38.6ZM95.9345 38.6C95.9345 45.0218 94.6167 50.1968 92.1414 54.1093C89.7153 57.9442 86.3337 59.86 81.8145 59.86C77.275 59.86 73.8188 58.011 71.4036 54.1933C68.9335 50.2891 67.6945 45.119 67.6945 38.6C67.6945 32.0838 68.9324 26.9967 71.4036 23.0906C73.8258 19.262 77.2882 17.34 81.8145 17.34C86.3337 17.34 89.7153 19.2558 92.1414 23.0906C94.6167 27.0032 95.9345 32.1782 95.9345 38.6Z" fill="white"/>
<path d="M155.599 58.6H126.244C126.82 57.2505 127.79 56.0381 129.146 55.0341C131.112 53.642 134.008 51.9027 137.933 49.8149L142.485 47.3699L142.498 47.3625C146.429 45.0982 149.713 42.5336 152.012 39.3062C154.324 36.0598 155.599 32.2001 155.599 27.428C155.599 21.6472 153.601 16.6036 149.794 13.0089C145.991 9.41773 140.477 7.35999 133.599 7.35999C120.432 7.35999 111.179 16.4769 111.179 27.68C111.179 32.6965 112.769 37.2855 116.02 41.3267L116.593 42.0392L125.872 35.8531L125.105 34.994C123.141 32.7947 121.999 30.0002 121.999 27.512C121.999 22.0675 126.539 17.34 133.179 17.34C136.831 17.34 139.722 18.4879 141.691 20.3438C143.658 22.1965 144.779 24.8227 144.779 27.932C144.779 32.4812 142.66 35.3071 139.508 37.4351L139.503 37.4387C137.969 38.4876 135.674 39.7206 132.648 41.2336L132.608 41.2537C130.63 42.2427 129.098 43.0087 128.062 43.6124C123.355 46.2661 119.548 49.3712 116.678 53.1112L116.673 53.117L116.669 53.123C113.818 56.9537 112.439 61.8867 112.439 68V69H155.599V58.6Z" fill="white"/>
<path fill-rule="evenodd" clip-rule="evenodd" d="M160.644 38.6C160.644 47.954 162.992 55.7535 167.316 61.2376C171.66 66.7466 177.938 69.84 185.584 69.84C193.23 69.84 199.508 66.7466 203.852 61.2376C208.176 55.7535 210.524 47.954 210.524 38.6C210.524 29.246 208.176 21.4465 203.852 15.9624C199.508 10.4534 193.23 7.35999 185.584 7.35999C177.938 7.35999 171.66 10.4534 167.316 15.9624C162.992 21.4465 160.644 29.246 160.644 38.6ZM199.704 38.6C199.704 45.0218 198.386 50.1968 195.911 54.1093C193.485 57.9442 190.103 59.86 185.584 59.86C181.045 59.86 177.588 58.011 175.173 54.1933C172.703 50.2891 171.464 45.119 171.464 38.6C171.464 32.0838 172.702 26.9967 175.173 23.0906C177.595 19.262 181.058 17.34 185.584 17.34C190.103 17.34 193.485 19.2558 195.911 23.0906C198.386 27.0032 199.704 32.1782 199.704 38.6Z" fill="white"/>
<path fill-rule="evenodd" clip-rule="evenodd" d="M13.7017 53.72C16.4737 50.108 20.1697 47.084 24.7897 44.48C25.7976 43.892 27.3094 43.1361 29.3252 42.1282C32.3492 40.6162 34.7017 39.356 36.2977 38.264C39.6577 35.996 42.0097 32.888 42.0097 27.932C42.0097 21.212 37.1377 16.34 29.4097 16.34C22.2697 16.34 17.2297 21.464 17.2297 27.512C17.2297 29.6929 18.0096 32.0298 19.365 34.0727C19.7323 34.6264 20.1419 35.1585 20.5897 35.66L13.0297 40.7C9.92167 36.836 8.40967 32.468 8.40967 27.68C8.40967 17.096 17.1457 8.35999 29.8297 8.35999C43.1857 8.35999 50.8297 16.34 50.8297 27.428C50.8297 36.584 45.9577 42.044 38.2297 46.496L33.6937 48.932C29.7457 51.032 26.8057 52.796 24.7897 54.224C23.4984 55.1784 22.5073 56.3205 21.8415 57.6C21.5111 58.2349 21.2608 58.9036 21.0937 59.6H50.8297V68H9.66967C9.66967 67.3169 9.6873 66.6503 9.72256 66C9.99518 60.9727 11.3215 56.9183 13.7017 53.72ZM24.1912 57.6H52.8297V70H7.66967V68C7.66967 61.7373 9.08362 56.5755 12.0972 52.526L12.106 52.5141L12.115 52.5023C15.0834 48.6345 19.0015 45.4483 23.795 42.7448C24.8586 42.1254 26.4111 41.3492 28.3546 40.3774L28.4312 40.3391C31.4591 38.8252 33.6982 37.6192 35.1683 36.6134L35.1787 36.6063C38.124 34.6182 40.0097 32.0743 40.0097 27.932C40.0097 25.0734 38.9843 22.7189 37.2361 21.0716C35.4811 19.4179 32.8494 18.34 29.4097 18.34C23.2689 18.34 19.2297 22.6711 19.2297 27.512C19.2297 29.7165 20.2543 32.2814 22.0815 34.328L23.6158 36.0463L12.6174 43.3785L11.4712 41.9535C8.07808 37.735 6.40967 32.9249 6.40967 27.68C6.40967 15.8579 16.1795 6.35999 29.8297 6.35999C36.9066 6.35999 42.6856 8.48047 46.7113 12.2818C50.7444 16.0903 52.8297 21.4103 52.8297 27.428C52.8297 32.3941 51.4976 36.4596 49.0566 39.8864C46.6427 43.2751 43.2249 45.9264 39.228 48.229L39.2022 48.2439L34.6329 50.6977C30.7311 52.7732 27.8798 54.4878 25.9627 55.844C25.2458 56.3761 24.6567 56.9659 24.1912 57.6ZM62.7614 61.8568C58.2613 56.149 55.8745 48.11 55.8745 38.6C55.8745 29.09 58.2613 21.051 62.7614 15.3432C67.3008 9.58575 73.8726 6.35999 81.8145 6.35999C89.7565 6.35999 96.3283 9.58575 100.868 15.3432C105.368 21.051 107.755 29.09 107.755 38.6C107.755 48.11 105.368 56.149 100.868 61.8568C96.3283 67.6142 89.7565 70.84 81.8145 70.84C73.8726 70.84 67.3008 67.6142 62.7614 61.8568ZM91.2964 53.5747C93.6429 49.8656 94.9345 44.8916 94.9345 38.6C94.9345 32.3084 93.6429 27.3343 91.2964 23.6253C89.0481 20.0716 85.9808 18.34 81.8145 18.34C77.6338 18.34 74.4891 20.084 72.2487 23.6253C69.9103 27.3213 68.6945 32.2036 68.6945 38.6C68.6945 45.0021 69.9125 49.9661 72.2487 53.6587C74.4752 57.178 77.6075 58.86 81.8145 58.86C85.9808 58.86 89.0481 57.1284 91.2964 53.5747ZM117.471 53.72C120.243 50.108 123.939 47.084 128.559 44.48C129.567 43.892 131.079 43.1361 133.095 42.1282C136.119 40.6162 138.471 39.356 140.067 38.264C143.427 35.996 145.779 32.888 145.779 27.932C145.779 21.212 140.907 16.34 133.179 16.34C126.039 16.34 120.999 21.464 120.999 27.512C120.999 29.6929 121.779 32.0298 123.135 34.0728C123.502 34.6264 123.911 35.1585 124.359 35.66L116.799 40.7C113.691 36.836 112.179 32.468 112.179 27.68C112.179 17.096 120.915 8.35999 133.599 8.35999C146.955 8.35999 154.599 16.34 154.599 27.428C154.599 36.584 149.727 42.044 141.999 46.496L137.463 48.932C133.515 51.032 130.575 52.796 128.559 54.224C127.268 55.1784 126.277 56.3205 125.611 57.6C125.281 58.2349 125.03 58.9036 124.863 59.6H154.599V68H113.439C113.439 67.3169 113.457 66.6503 113.492 66C113.765 60.9727 115.091 56.9183 117.471 53.72ZM127.961 57.6H156.599V70H111.439V68C111.439 61.7373 112.853 56.5755 115.867 52.526L115.876 52.5141L115.885 52.5023C118.853 48.6345 122.771 45.4483 127.564 42.7449C128.628 42.1255 130.18 41.3493 132.124 40.3776L132.201 40.3391C135.229 38.8252 137.468 37.6192 138.938 36.6134L138.948 36.6063C141.894 34.6182 143.779 32.0743 143.779 27.932C143.779 25.0734 142.754 22.7189 141.006 21.0716C139.251 19.4179 136.619 18.34 133.179 18.34C127.038 18.34 122.999 22.6711 122.999 27.512C122.999 29.7165 124.024 32.2814 125.851 34.328L127.385 36.0463L116.387 43.3785L115.241 41.9535C111.848 37.735 110.179 32.9249 110.179 27.68C110.179 15.8579 119.949 6.35999 133.599 6.35999C140.676 6.35999 146.455 8.48047 150.481 12.2818C154.514 16.0903 156.599 21.4103 156.599 27.428C156.599 32.3941 155.267 36.4596 152.826 39.8864C150.412 43.2751 146.994 45.9264 142.998 48.229L142.972 48.2439L138.402 50.6977C134.501 52.7732 131.649 54.4878 129.732 55.844C129.015 56.3761 128.426 56.9659 127.961 57.6ZM166.531 61.8568C162.031 56.149 159.644 48.11 159.644 38.6C159.644 29.09 162.031 21.051 166.531 15.3432C171.07 9.58575 177.642 6.35999 185.584 6.35999C193.526 6.35999 200.098 9.58575 204.637 15.3432C209.137 21.051 211.524 29.09 211.524 38.6C211.524 48.11 209.137 56.149 204.637 61.8568C200.098 67.6142 193.526 70.84 185.584 70.84C177.642 70.84 171.07 67.6142 166.531 61.8568ZM195.066 53.5747C197.412 49.8656 198.704 44.8916 198.704 38.6C198.704 32.3084 197.412 27.3343 195.066 23.6253C192.818 20.0716 189.75 18.34 185.584 18.34C181.403 18.34 178.259 20.084 176.018 23.6253C173.68 27.3213 172.464 32.2036 172.464 38.6C172.464 45.0021 173.682 49.9661 176.018 53.6587C178.245 57.178 181.377 58.86 185.584 58.86C189.75 58.86 192.818 57.1284 195.066 53.5747ZM81.8145 68.84C67.1145 68.84 57.8745 56.996 57.8745 38.6C57.8745 20.204 67.1145 8.35999 81.8145 8.35999C96.5145 8.35999 105.755 20.204 105.755 38.6C105.755 56.996 96.5145 68.84 81.8145 68.84ZM92.9865 54.644C95.5905 50.528 96.9345 45.152 96.9345 38.6C96.9345 32.048 95.5905 26.672 92.9865 22.556C90.3825 18.44 86.6865 16.34 81.8145 16.34C76.9425 16.34 73.1625 18.44 70.5585 22.556C67.9545 26.672 66.6945 31.964 66.6945 38.6C66.6945 45.236 67.9545 50.612 70.5585 54.728C73.1625 58.844 76.9425 60.86 81.8145 60.86C86.6865 60.86 90.3825 58.76 92.9865 54.644ZM185.584 68.84C170.884 68.84 161.644 56.996 161.644 38.6C161.644 20.204 170.884 8.35999 185.584 8.35999C200.284 8.35999 209.524 20.204 209.524 38.6C209.524 56.996 200.284 68.84 185.584 68.84ZM196.756 54.644C199.36 50.528 200.704 45.152 200.704 38.6C200.704 32.048 199.36 26.672 196.756 22.556C194.152 18.44 190.456 16.34 185.584 16.34C180.712 16.34 176.932 18.44 174.328 22.556C171.724 26.672 170.464 31.964 170.464 38.6C170.464 45.236 171.724 50.612 174.328 54.728C176.932 58.844 180.712 60.86 185.584 60.86C190.456 60.86 194.152 58.76 196.756 54.644Z" fill="url(#paint0_linear)"/>
<defs>
<linearGradient id="paint0_linear" x1="4.9872" y1="43" x2="212.987" y2="43" gradientUnits="userSpaceOnUse">
<stop offset="0.5" stop-color="#FFD200"/>
<stop offset="1" stop-color="#FF9900"/>
</linearGradient>
</defs>
</svg>
